<svg id="eHvrjBxnaAY1" xmlns="http://www.w3.org/2000/svg" xmlns:xlink="http://www.w3.org/1999/xlink" viewBox="0 0 150 80" shape-rendering="geometricPrecision" text-rendering="geometricPrecision" width="150" height="80"><g transform="translate(-115.40091-151.751533)"><g transform="translate(126.106 211.393)"><g><path d="M37.0625,1.976562c-.871094,1.105469-2.617188,2.386719-4.128906,2.5625-.582032.058594-1.164063-.117187-1.746094-.292968-.234375-.113282-2.386719-1.105469-2.386719-.988282l.292969.351563c-1.046875-.699219-2.269531-2.039063-3.257812-3.027344-1.457032-1.453125-2.96875-2.792969-4.480469-4.191406-.46875-.578125-4.65625-5.582031-6.519531-8.027344.582031.988281,1.515624,2.269531,1.980468,2.96875-1.570312-1.921875-2.851562-3.957031-4.132812-6.054687c3.085937-1.511719,6.109375-3.605469,8.613281-5.875.871094-.8125,1.511719-1.746094,2.441406-2.5c1.339844-1.164063,2.5625-2.503906,3.898438-3.667969.640625-.582031,1.457031-1.222656,1.980469-1.917969.523437-.699218.753906-1.339844,1.394531-1.980468c1.28125-1.335938,2.328125-2.675782,3.492187-4.015626c1.628906-1.917968,2.910156-3.78125,2.5-6.28125v-.117187c-.230468-1.105469-1.21875-3.433594-2.441406-3.722656-.875-.175781-.699219.523437-.875,1.105469-.988281,3.429687-3.898438,6.691406-6.109375,9.484374-2.382813,2.90625-5.117187,5.234376-7.621094,7.96875-2.5,2.5625-5.121093,4.773438-7.972656,6.984376.46875-1.804688,1.515625-3.492188,1.863281-5.296876.117188-.988281.292969-1.804687.699219-2.734374l1.046875-2.617188c.582031-1.6875,1.164062-3.316406,1.804688-4.945312.40625-1.164063,1.046874-2.386719,1.394531-3.609376.175781-.699218.058593-1.105468.292969-1.6875.695312-1.628906,2.441406-2.910156.40625-4.304687-.988282-.757813-3.199219-1.398437-3.957032-.058594c0,.058594.058594.175781.117188.234375l-.40625.988282c-.410156.8125-.757813,1.628906-.992188,2.386718-1.628906,3.898438-2.90625,7.851563-4.246094,11.75-1.394531,4.421875-3.027343,8.789063-4.304687,13.210938-.410156,1.746094-.640625,3.429687-1.28125,5.117187-.757813,2.15625-1.394531,4.308594-1.917969,6.519531-.640625,2.5-1.746094,5.234376,0,7.5625.578125.875,2.441406,3.085938,3.257813,1.570313.40625-.695313.347656-1.917969.523437-2.675781l.695313-3.023438c.582031-2.445312,1.164062-4.890625,1.921875-7.390625.582031-1.6875.640625-3.375,1.164062-5.0625l1.046875,2.035157c.234375.117187.40625.292968.464844.523437-.175781.058594-.230469.234375-.175781.410156.292968,1.105469,1.109375,2.152344,1.6875,3.082031.351562.523438,3.785156,5.992188,3.898437,5.820313v-.117187l.757813.929687c-.117188.117187-.289063-.230469-.347656-.175781-.410157.410156,2.328124,3.609375,2.617187,3.84375.699219.636718,1.339844,1.277344,1.976563,2.035156.292968.40625.640624.8125,1.105468,1.164062.117188.058594.875.523438.699219.347657.058594,0,.175781.058593.292969.175781-.117188-.058594-.175782-.058594-.234375-.058594c0,.234375,3.085937,2.5,3.316406,2.675782c1.046875.582031,2.210937.875,3.492187.640624C33.921875,9.425781,36.25,6.34375,37.878906,3.78125c.347656-.582031.523438-1.046875.464844-1.746094-.234375-1.570312-.757812-.695312-1.28125-.058594ZM7.855469,-17.222656c-.058594.058594-.058594.117187-.058594.175781-.582031,2.382813-1.046875,4.828125-1.746094,7.273437-.582031,1.859376-1.335937,3.664063-1.863281,5.46875c1.105469-4.714843,2.621094-9.484374,3.957031-14.199218ZM18.734375,-6.34375l.992187,1.222656c-.46875-.523437-.992187-1.046875-1.398437-1.628906Zm-4.539063-6.050781l-.289062-.523438c0,.058594.117188.234375.289062.523438Zm.292969.410156l-.234375-.292969Zm0,0" fill="#ff6280"/></g></g></g><g transform="translate(-115.400912-151.75153)"><g transform="translate(159.446 211.393)"><g><path d="M29.617188,-14.023438c-.058594-1.277343-1.105469-.171874-1.457032.292969-.753906,1.105469-1.453125,2.269531-2.152344,3.375-1.570312,2.382813-3.140624,4.769531-4.945312,7.039063-5.992188,7.390625-1.804688-5.761719-2.269531-5.644532-.230469.058594-.40625.929688-.464844,1.105469.464844-2.09375,1.339844-4.597656,2.445313-6.632812.636718-1.28125,1.394531-2.328125.230468-3.722657-2.152344-2.621093-4.652344-.234374-6.050781,1.570313-.582031-2.210937-1.746094-5.46875-4.597656-5.46875-1.277344,0-2.035157.640625-2.90625,1.394531-.523438.351563-.933594.410156-1.398438.816406-.757812.523438-1.28125,1.335938-1.804687,2.035157-1.976563,2.910156-3.375,6.574219-4.011719,9.949219-.292969,1.628906-.410156,3.433593.054687,5.0625C0.582031,-1.921875,1.628906,0.175781,2.96875,0c.058594,0-.058594-.058594-.234375-.175781.816406.234375,1.746094.117187,2.445313-.347657.058593.117188-.640626.40625-.640626.40625.640626.988282,5.410157-4.769531,5.757813-5.292968.757813-1.046875,1.28125-2.152344,1.980469-3.257813.523437-.816406,1.339844-1.863281,1.917968-2.734375-.054687.40625-.054687.929688-.054687.929688C13.089844,-7.15625,12.101562,-3.550781,13.5,-0.117188c.640625,1.746094,2.210938,3.375,4.1875,3.027344c1.746094-.292968,3.199219-1.980468,4.25-3.316406c1.277344-1.515625,2.382812-3.203125,3.488281-4.945312.933594-1.574219,1.804688-3.144532,2.5625-4.890626.464844-1.105468,1.746094-2.441406,1.628907-3.78125Zm-16.699219.40625c-.292969.410157-.582031.816407-.816407,1.222657l-1.511718,2.152343c-.988282,1.457032-2.035156,2.851563-3.140625,4.191407-.292969.40625-1.6875,2.210937-2.269531,2.035156-.875-.289063.058593-3.316406.171874-3.78125.175782-.816406,3.261719-9.773437,4.074219-9.949219-1.046875-.058594-4.421875,10.472656-4.597656,11.347656.464844-2.851562,1.515625-5.644531,2.679687-8.265624.636719-1.335938,2.09375-4.886719,4.011719-4.886719c1.046875,0,1.28125,2.152343,1.457031,2.851562-.058593-.117187-.582031-1.804687-.640624-1.746093-.292969.234374.871093,3.433593.871093,3.898437s0,.464844-.289062.929687Zm1.335937,2.851563c0,0,.175782-.8125.234375-.988281l.289063-.40625Zm-.871094-3.605469v-.582031c.175782.230469.175782.40625,0,.582031Zm0,0" fill="#ff6280"/></g></g></g><g transform="translate(-115.400909-151.751529)"><g transform="translate(184.814 211.393)"><g><path d="M22.285156,-14.371094c0,.058594,0,.058594-.058594,0v-.058594c-.929687-1.570312-2.152343.582032-2.675781,1.339844-.988281,1.335938-1.921875,2.617188-2.96875,3.839844-.871093,1.046875-1.804687,2.09375-2.5,3.199219c0,.117187-.117187.40625-.117187.40625-.234375.351562-.582032.640625-.875.988281-.523438.523438-1.046875,1.105469-1.628906,1.628906-.871094.816406-5.757813,5.414063-6.398438,2.445313-.347656-1.453125.117188-3.257813.40625-4.65625.175781-.753907.351562-1.453125.464844-2.210938.117187-.582031-.058594-1.164062.234375-1.742187.175781-.351563.230469-.292969.640625-.410156l.988281-.347657c.640625-.234375,1.28125-.464843,1.863281-.816406.871094-.523437,1.6875-1.164063,2.441406-1.800781c1.804688-1.515625,3.726563-3.316406,4.480469-5.585938.40625-1.28125.464844-2.679687-.347656-3.785156-.757813-.988281-2.039063-1.511719-3.199219-1.742188-3.144531-.582031-5.527344,1.21875-7.332031,3.605469-2.210937,2.734375-3.78125,6.109375-4.539063,9.542969-.40625,1.6875-.640624,3.375-.929687,5.121094-.292969,1.746094-.46875,3.375.464844,5.003906-.058594-.582031-.175781-1.105469-.175781-1.628906c0-.292969.117187-.582032.117187-.816406c0-.117188-.117187-.464844-.117187-.640626c0-.523437.117187-.929687.234374-1.453124.058594-.523438,0-1.046876.058594-1.570313.054688-.582031.289063-1.046875.523438-1.570313.171875-.46875.230468-.875.40625-1.339843.175781-.40625.289062-.871094.464844-1.339844.058593-.289063.347656-.636719.523437-.988281-.175781.523437-.523437.988281-.640625,1.457031-.171875.695313-.058594,1.453125-.117188,2.152344-.113281.753906-.347656,1.511719-.464843,2.324219-.117188.757812-.464844,1.457031-.582031,2.210937-.113282.699219-.347657,1.222656-.289063,1.921875c0,.40625.058594.816406.117187,1.164062.058594.464844.347657.757813.636719,1.105469.992188,1.164063,2.328125,2.09375,3.84375,2.5c1.046875.292969,1.976563.234375,2.964844-.289062c1.398437-.757813,2.621094-1.921875,3.667969-3.027344.988281-1.105469,1.746094-2.324219,2.617187-3.488281.8125-1.046875,1.804688-2.039063,2.617188-3.085938L20.25,-10.878906l1.800781-2.386719c.292969-.351563.46875-.640625.234375-1.105469Zm-14.429687.640625c.058593-.117187.058593-.175781.058593-.175781.871094-1.863281,1.511719-3.839844,2.734376-5.644531l1.046874-1.394531c.234376-.292969.640626-.816407,1.046876-.933594.875-.171875,1.105468,1.339844,1.046874,1.921875l-.230468,1.222656c-.058594.347656.058594.582031,0,.871094-.117188.347656-.410156.523437-.582032.816406l-.992187,1.277344c-1.335937,1.574219-3.023437,2.910156-4.886719,3.898437.292969-.640625.464844-1.277344.757813-1.859375Zm0,0" fill="#ff6280"/></g></g></g><g transform="translate(-115.400915-151.751533)"><g transform="translate(202.909 211.393)"><g><path d="M23.273438,-14.835938c-.8125.871094-1.335938,2.324219-1.976563,3.375-.992187,1.6875-1.980469,3.316407-3.027344,4.945313C16.292969,-3.375,14.3125,-0.175781,11.929688,2.675781C10.9375,3.898438,8.84375,6.867188,6.867188,6.632812C5.410156,6.398438,5.410156,3.898438,5.410156,2.792969c0-.929688.058594-1.863281.175782-2.734375.058593-.523438.523437-2.269532.234374-2.734375l-.46875,1.746093c.058594-.699218.175782-1.457031.351563-2.152343-.058594-.117188.464844-1.746094.582031-2.269531.289063-1.164063.582032-2.328126.929688-3.492188.292968-1.164062.582031-2.269531.929687-3.375.292969-1.046875.699219-1.570312,1.339844-2.386719c2.617187-3.257812,5.003906-6.804687,7.214844-10.355469.816406-1.339843,1.339843-2.503906,2.328125-3.609374c1.453125-1.511719,2.441406-3.78125,3.375-5.640626c1.570312-3.027343,3.664062-7.214843,3.316406-10.765624v-.292969l-.058594-.054688c-.351562-2.269531-2.445312-4.949219-5.003906-4.132812-1.339844.40625-2.328125,1.804687-3.140625,2.792969l-1.339844,1.804687c-.292969.347656-.699219,1.21875-.988281,1.6875l.058594-.058594-1.863282,3.199219.464844-.988281c-.289062-.058594-1.570312,2.441406-1.746094,2.734375-.640624,1.105468-1.222656,2.210937-1.746093,3.316406-1.164063,2.328125-2.324219,4.710938-3.082031,7.214844-.816407,2.5-1.746094,4.945312-2.617188,7.449218-.46875,1.335938-.933594,2.734376-1.339844,4.070313-.347656,1.105469-1.164062,2.910156-.988281,4.074219h.175781c-.175781.40625-.292968.8125-.410156,1.222656.058594-.351562.058594-.757812.117188-.875-.289063.410156-.234376,1.804688-.289063,1.921875-.757813,3.140625-1.632813,6.28125-1.863281,9.542969-.175782,3.082031-.175782,7.15625,2.269531,9.425781c2.734375,2.5,5.875.8125,8.144531-1.339844c2.675782-2.617187,4.945313-5.703125,7.042969-8.726562c1.917969-2.792969,3.429687-5.761719,5.175781-8.554688.699219-1.164062,1.457032-2.328125,1.804688-3.605469.234375-.933593.117187-3.085937-1.222656-1.6875ZM16,-35.667969c1.164062-2.792969,2.328125-5.644531,3.957031-8.261719.40625-.640624,3.027344-4.132812,2.910157-1.046874v.058593c-.117188,3.257813-2.210938,6.691407-3.609376,9.484375l-2.441406,4.539063C16,-29.5,14.605469,-27.753906,14.140625,-26.242188c.347656-.929687,1.394531-2.269531,1.917969-3.140624.875-1.457032,1.628906-2.910157,2.445312-4.363282c1.335938-2.5625,2.792969-5.238281,3.78125-8.03125-2.617187,7.796875-7.507812,15.070313-11.8125,21.996094c1.6875-5.121094,3.375-10.707031,5.527344-15.886719Zm-1.859375-4.074219c.582031-1.105468,1.628906-2.035156,2.210937-3.082031-1.222656,2.445313-2.734374,4.65625-4.015624,6.980469c0-.054688,0-.171875.058593-.230469.523438-1.28125,1.105469-2.445312,1.746094-3.667969Zm-11,30.082032c-.058594.117187-.058594.175781-.058594.175781-.695312,1.628906-.753906,3.839844-1.105469,5.585937-.054687.40625-.171874.757813-.171874,1.164063v-.175781l-.175782,1.863281c.117188-2.09375.347656-4.246094.757813-6.285156v.058593c.171875-1.339843.464843-2.558593.695312-2.558593.117188-.058594.117188.113281.058594.171875Zm0,0" fill="#ff6280"/></g></g></g><g transform="translate(-115.400909-151.75153)"><g transform="translate(223.506 211.393)"><g><path d="M29.617188,-14.023438c-.058594-1.277343-1.105469-.171874-1.457032.292969-.753906,1.105469-1.453125,2.269531-2.152344,3.375-1.570312,2.382813-3.140624,4.769531-4.945312,7.039063-5.992188,7.390625-1.804688-5.761719-2.269531-5.644532-.230469.058594-.40625.929688-.464844,1.105469.464844-2.09375,1.339844-4.597656,2.445313-6.632812.636718-1.28125,1.394531-2.328125.230468-3.722657-2.152344-2.621093-4.652344-.234374-6.050781,1.570313-.582031-2.210937-1.746094-5.46875-4.597656-5.46875-1.277344,0-2.035157.640625-2.90625,1.394531-.523438.351563-.933594.410156-1.398438.816406-.757812.523438-1.28125,1.335938-1.804687,2.035157-1.976563,2.910156-3.375,6.574219-4.011719,9.949219-.292969,1.628906-.410156,3.433593.054687,5.0625C0.582031,-1.921875,1.628906,0.175781,2.96875,0c.058594,0-.058594-.058594-.234375-.175781.816406.234375,1.746094.117187,2.445313-.347657.058593.117188-.640626.40625-.640626.40625.640626.988282,5.410157-4.769531,5.757813-5.292968.757813-1.046875,1.28125-2.152344,1.980469-3.257813.523437-.816406,1.339844-1.863281,1.917968-2.734375-.054687.40625-.054687.929688-.054687.929688C13.089844,-7.15625,12.101562,-3.550781,13.5,-0.117188c.640625,1.746094,2.210938,3.375,4.1875,3.027344c1.746094-.292968,3.199219-1.980468,4.25-3.316406c1.277344-1.515625,2.382812-3.203125,3.488281-4.945312.933594-1.574219,1.804688-3.144532,2.5625-4.890626.464844-1.105468,1.746094-2.441406,1.628907-3.78125Zm-16.699219.40625c-.292969.410157-.582031.816407-.816407,1.222657l-1.511718,2.152343c-.988282,1.457032-2.035156,2.851563-3.140625,4.191407-.292969.40625-1.6875,2.210937-2.269531,2.035156-.875-.289063.058593-3.316406.171874-3.78125.175782-.816406,3.261719-9.773437,4.074219-9.949219-1.046875-.058594-4.421875,10.472656-4.597656,11.347656.464844-2.851562,1.515625-5.644531,2.679687-8.265624.636719-1.335938,2.09375-4.886719,4.011719-4.886719c1.046875,0,1.28125,2.152343,1.457031,2.851562-.058593-.117187-.582031-1.804687-.640624-1.746093-.292969.234374.871093,3.433593.871093,3.898437s0,.464844-.289062.929687Zm1.335937,2.851563c0,0,.175782-.8125.234375-.988281l.289063-.40625Zm-.871094-3.605469v-.582031c.175782.230469.175782.40625,0,.582031Zm0,0" fill="#ff6280"/></g></g></g></svg>